# xmcd
#
# Track frame offsets:
# 150
# 16120
# 39012
# 59930
# 80885
# 98117
# 120155
# 144657
# 161452
# 185017
# 197347
# 218895
# 230955
# 244847
# 270530
# 288710
#
# Disc length: 4177 seconds
#
#
# Revision: 1
# Processed by: cddbd v1.5.1PL0 Copyright (c) Steve Scherf et al.
# Submitted via: FreeRIP 2.00 
#
DISCID=e8104f10
DTITLE=John Lee Hooker - get back home.............
DYEAR=1992
DGENRE=Blues
TTITLE0=Get Back Home in the USA
TTITLE1=T.B. is Killing Me
TTITLE2=Cold Chills
TTITLE3=I Had A Dream Last Night
TTITLE4=Love Affair
TTITLE5=Little Rain
TTITLE6=When My First Wife Left Me
TTITLE7=Big Bos Lady
TTITLE8=Back To Your Mother
TTITLE9=Boogie Chillen
TTITLE10=Sittin' Here Thinkin'
TTITLE11=I Wanna' Ramble
TTITLE12=Hi Heel Sneakers
TTITLE13=I'm So Worried Baby
TTITLE14=I'm Going Upstairs
TTITLE15=Crazy 'bout You
EXTD=
EXTT0=
EXTT1=
EXTT2=
EXTT3=
EXTT4=
EXTT5=
EXTT6=
EXTT7=
EXTT8=
EXTT9=
EXTT10=
EXTT11=
EXTT12=
EXTT13=
EXTT14=
EXTT15=
PLAYORDER=
